<svg height="48" viewBox="0 0 193 48" width="193" xmlns="http://www.w3.org/2000/svg"><g fill="#fff"><path d="M53.52 24.748v-1.371h-6.038v9.911h1.447v-4.613h3.962v-1.309h-3.962v-2.618zm3.018 7.169v-8.54H55.03v9.911h5.912v-1.371zm12.704-5.673a4.231 4.231 0 0 0-.692-1.62 3.457 3.457 0 0 0-1.257-1.06c-.504-.25-1.132-.374-1.824-.374-.692 0-1.32.124-1.824.374a3.454 3.454 0 0 0-1.258 1.06 4.231 4.231 0 0 0-.692 1.62 10.49 10.49 0 0 0-.188 2.057c0 .748.063 1.496.188 2.12.126.623.378 1.184.692 1.62.315.437.755.81 1.258 1.06s1.132.374 1.824.374c.692 0 1.32-.124 1.824-.374.503-.25.943-.623 1.257-1.06.315-.436.566-.997.692-1.62.126-.624.189-1.31.189-2.12 0-.748-.063-1.433-.189-2.057zm-3.773 5.86c-.44 0-.88-.062-1.195-.25-.315-.124-.566-.373-.755-.685-.189-.312-.314-.686-.44-1.185a13.164 13.164 0 0 1-.126-1.683c0-.623.063-1.184.126-1.683.063-.499.251-.873.44-1.184s.44-.561.755-.686c.314-.187.692-.25 1.195-.25.44 0 .88.063 1.195.25.314.187.566.374.754.686s.315.685.44 1.184c.063.499.126 1.06.126 1.683 0 .624-.063 1.185-.125 1.683-.063.5-.252.873-.44 1.185-.19.312-.44.499-.755.686-.378.187-.755.249-1.195.249zm10.251-2.992c.189-.063.377-.125.566-.25.251-.124.503-.311.692-.56s.314-.562.44-.873c.126-.312.126-.686.126-1.185s-.063-.935-.252-1.309c-.126-.374-.377-.686-.692-.935-.314-.25-.691-.374-1.069-.499-.44-.124-.88-.124-1.446-.124h-2.956v9.911h1.446v-3.99h1.573l2.39 3.99h1.76zm-3.082-4.364h1.51c.377 0 .691.062.943.125.252.062.44.124.566.25.126.124.252.248.314.435.063.187.126.437.126.748s-.063.624-.126.81-.188.375-.314.5c-.126.124-.314.187-.566.249a4.413 4.413 0 0 1-1.006.125h-1.447zm10.252-.062v-1.31h-4.088v1.31h1.32v7.293h-1.32v1.31h4.087v-1.31h-1.32v-7.293zm8.238 1.371c-.189-.623-.503-1.184-.88-1.558-.378-.374-.88-.686-1.447-.873s-1.258-.25-2.012-.25h-2.453v9.912h2.515c.692 0 1.384-.062 1.95-.249a3.015 3.015 0 0 0 1.447-.81c.377-.374.691-.935.88-1.559.189-.623.314-1.434.314-2.369-.062-.872-.125-1.62-.314-2.244zm-5.346-1.309h.944c.629 0 1.132.062 1.509.187s.692.312.943.561.44.623.504 1.06c.125.499.188 1.06.188 1.745 0 .686-.063 1.31-.188 1.746-.126.436-.315.81-.566 1.06a2.375 2.375 0 0 1-.944.56 5.55 5.55 0 0 1-1.51.188h-.943v-7.107zm11.195-1.371h-1.572l-3.46 9.911h1.51l.943-2.68h3.585l.943 2.68h1.573zm-2.138 5.86l1.32-3.866 1.32 3.865zm15.911-5.05c-.566-.561-1.447-.81-2.579-.81h-2.893v9.911h1.447v-3.304h1.32a5.55 5.55 0 0 0 1.51-.187c.44-.124.817-.311 1.132-.623.314-.25.503-.623.692-1.06.125-.436.188-.935.188-1.558.063-.998-.251-1.808-.817-2.369zm-3.962.561h1.32c.315 0 .63.062.88.125s.441.187.63.311c.188.125.251.312.377.561.063.25.126.561.126.936 0 .436-.063.748-.126 1.06a.908.908 0 0 1-.377.56c-.189.125-.378.25-.63.312-.314.062-.628.125-1.005.125h-1.195zm13.772 1.496a4.231 4.231 0 0 0-.691-1.62 3.457 3.457 0 0 0-1.258-1.06c-.503-.25-1.132-.374-1.824-.374-.692 0-1.32.124-1.824.374a3.443 3.443 0 0 0-1.257 1.06 4.231 4.231 0 0 0-.692 1.62c-.126.624-.189 1.31-.189 2.057 0 .748.063 1.496.189 2.12.126.623.377 1.184.692 1.62.314.437.754.81 1.257 1.06.504.25 1.132.374 1.824.374.692 0 1.32-.124 1.824-.374.503-.25.943-.623 1.258-1.06.314-.436.566-.997.692-1.62a10.7 10.7 0 0 0 .188-2.12c0-.748-.063-1.433-.188-2.057zm-3.773 5.86c-.44 0-.88-.062-1.195-.25-.314-.124-.566-.373-.754-.685-.189-.312-.315-.686-.44-1.185a13.164 13.164 0 0 1-.126-1.683c0-.623.063-1.184.125-1.683.063-.499.252-.873.44-1.184s.44-.561.755-.686c.315-.187.692-.25 1.195-.25.44 0 .88.063 1.195.25.315.187.566.374.755.686s.314.685.44 1.184c.063.499.126 1.06.126 1.683 0 .624-.063 1.185-.126 1.683-.063.5-.252.873-.44 1.185-.189.312-.44.499-.755.686-.377.187-.755.249-1.195.249zm7.17-.187v-8.54h-1.447v9.911h5.912v-1.371zm9.685-8.54l-2.39 4.55-2.264-4.55h-1.635l3.207 6.109v3.802h1.447v-3.865l3.207-6.046zm1.824 0v1.371h3.27v8.54h1.446v-8.54h3.208v-1.371zm14.904 1.371v-1.371h-6.1v9.911h6.1v-1.371h-4.653v-3.18h4.025v-1.37h-4.025v-2.619zm8.176 5.797l-.125.25c-.126.187-.19.311-.378.499a1.463 1.463 0 0 1-.44.436c-.189.125-.377.25-.629.312a3.838 3.838 0 0 1-.943.124c-.503 0-.944-.062-1.258-.25s-.629-.373-.818-.685c-.251-.312-.377-.686-.503-1.184-.126-.499-.188-1.06-.188-1.683s.062-1.185.188-1.683c.126-.437.252-.873.503-1.185.189-.312.503-.56.818-.686.314-.187.755-.249 1.258-.249.314 0 .566.062.817.125s.44.124.63.25c.188.124.314.248.44.435l.377.561.126.25 1.257-.81-.125-.188c-.126-.311-.315-.56-.566-.81-.19-.25-.44-.436-.755-.623a2.794 2.794 0 0 0-1.006-.374 7.132 7.132 0 0 0-1.258-.125c-.692 0-1.384.125-1.887.374-.566.25-1.006.561-1.32.997-.315.437-.63.998-.755 1.621-.189.624-.252 1.372-.252 2.182 0 1.683.378 2.93 1.006 3.803.692.872 1.824 1.309 3.27 1.309.504 0 .944-.063 1.321-.125a4.89 4.89 0 0 0 1.007-.436c.314-.187.566-.374.754-.624l.566-.748.126-.25zm8.114-7.168v4.114h-4.089v-4.114h-1.446v9.911h1.446v-4.426h4.088v4.426h1.447v-9.911zm9.37 0v7.168l-3.962-7.168h-1.761v9.911h1.383v-7.605l4.277 7.605h1.51v-9.911zm7.044 1.309v-1.31h-4.025v1.31h1.257v7.293h-1.257v1.31h4.025v-1.31h-1.321v-7.293zm7.924 5.859l-.126.25c-.126.187-.189.311-.377.499a1.463 1.463 0 0 1-.44.436c-.19.125-.378.25-.63.312a3.838 3.838 0 0 1-.943.124c-.503 0-.943-.062-1.258-.25s-.629-.373-.817-.685c-.252-.312-.378-.686-.503-1.184-.126-.499-.189-1.06-.189-1.683s.063-1.185.189-1.683c.125-.437.251-.873.503-1.185a1.74 1.74 0 0 1 .817-.686c.315-.187.755-.249 1.258-.249.315 0 .566.062.818.125s.44.124.629.25c.188.124.314.248.44.435l.377.561.126.25 1.258-.81-.126-.188c-.126-.311-.314-.56-.566-.81-.189-.25-.44-.436-.755-.623a2.794 2.794 0 0 0-1.006-.374 7.068 7.068 0 0 0-1.258-.125c-.692 0-1.383.125-1.886.374-.566.25-1.007.561-1.321.997-.315.437-.63.998-.755 1.621-.189.624-.251 1.372-.251 2.182 0 1.683.377 2.93 1.006 3.803.692.872 1.824 1.309 3.27 1.309a7.94 7.94 0 0 0 1.32-.125 4.89 4.89 0 0 0 1.007-.436c.315-.187.566-.374.755-.624l.566-.748.126-.25zm-137.73 6.733v5.61c0 .624-.063 1.122-.126 1.559-.063.374-.188.748-.377.935-.126.25-.377.374-.629.499-.314.124-.629.187-1.132.187-.44 0-.818-.063-1.132-.187-.252-.125-.503-.25-.629-.5-.189-.249-.314-.56-.377-.934a10.418 10.418 0 0 1-.126-1.559v-5.61h-1.447v5.735c0 .748.063 1.434.19 1.995.125.56.314.997.628 1.371.315.374.692.624 1.195.81a6.09 6.09 0 0 0 1.698.25c.629 0 1.195-.062 1.635-.25.503-.186.88-.436 1.132-.81.315-.374.503-.81.63-1.371.125-.561.188-1.185.188-1.995v-5.735zm9.371 0v7.106l-3.962-7.106h-1.761v9.912h1.383v-7.668l4.277 7.668h1.51v-9.912zm7.043 1.309v-1.31h-4.087v1.31h1.32v7.231h-1.32v1.372h4.087v-1.372h-1.32v-7.231zm7.17-1.309L74.21 45.07l-2.516-7.792h-1.51l3.27 9.912h1.51l3.396-9.912zm8.742 1.309v-1.31h-6.1v9.913h6.1v-1.372H80.94V42.64h4.025v-1.371H80.94v-2.681zm6.352 4.363c.188-.062.377-.124.566-.249.251-.124.503-.311.691-.56.189-.25.315-.562.44-.873s.126-.686.126-1.185-.063-.935-.251-1.309c-.126-.374-.378-.686-.692-.935-.314-.25-.692-.374-1.07-.499-.44-.124-.88-.124-1.446-.124h-2.893v9.911h1.447v-3.99h1.572l2.39 3.99h1.761zm-3.082-4.363h1.51c.377 0 .691.062.943.125.251.062.44.124.566.249s.251.25.314.436c.063.187.126.437.126.748s-.063.624-.126.81c-.063.188-.189.375-.314.5s-.315.187-.566.249a4.413 4.413 0 0 1-1.007.125h-1.446zM102.07 43.2c-.188-.312-.376-.623-.69-.873a2.907 2.907 0 0 0-1.07-.56 18.25 18.25 0 0 0-1.32-.375c-.441-.124-.818-.187-1.133-.311-.314-.125-.503-.187-.692-.312-.125-.125-.251-.187-.314-.312a1.166 1.166 0 0 1-.126-.499c0-.249.063-.436.126-.623s.189-.312.314-.436c.126-.125.315-.25.566-.312.44-.125 1.133-.125 1.573 0 .188.062.377.125.566.25.188.124.314.249.44.373.126.187.252.312.377.5l.126.248 1.195-.81-.126-.187-.566-.748a1.716 1.716 0 0 0-.754-.561 2.138 2.138 0 0 0-.944-.374 5.689 5.689 0 0 0-1.132-.125c-.566 0-1.006.063-1.446.187-.44.125-.755.312-1.07.561-.314.25-.503.561-.628.935a3.6 3.6 0 0 0-.189 1.185c0 .436.063.81.189 1.122.125.312.377.56.691.81.252.187.63.374 1.07.499.377.125.88.25 1.446.436.377.125.755.187 1.07.312.25.125.502.187.691.374.189.125.252.25.377.436.063.187.126.374.126.624s-.063.498-.126.685c-.125.187-.251.312-.44.437s-.44.25-.692.25c-.566.124-1.258.124-1.76 0a2.335 2.335 0 0 1-.692-.312c-.19-.125-.378-.25-.504-.437s-.251-.312-.314-.499l-.126-.249-1.258.748.126.25c.189.311.378.56.566.81.189.25.503.499.755.623.314.187.629.312 1.006.437s.818.124 1.32.124c.504 0 .944-.062 1.322-.124.44-.125.817-.25 1.132-.5.314-.248.566-.56.754-.934s.315-.81.315-1.372c.125-.623.063-1.06-.126-1.371zm5.347-4.613v-1.31h-4.025v1.31h1.257v7.231h-1.257v1.372h4.025v-1.372h-1.321v-7.231zm.503-1.309v1.309h3.207v8.603h1.447v-8.603h3.27v-1.31zm14.402 0l-2.327 4.55-2.327-4.55h-1.635l3.207 6.109v3.803h1.446v-3.865l3.208-6.047z"/><path d="M29.244 46.317h-3.9L11.76 30.919c-2.64-3.179-4.716-5.61-4.78-5.735-.188-.374-.188-1.246-.188-1.246l12.075 3.304z" opacity=".6"/><path d="M33.772 46.317H29.81l-11.069-20.51c-3.144-6.046-5.786-11.095-5.848-11.282-.126-.499 0-1.434 0-1.434l13.961 10.535z" opacity=".8"/><path d="M20.754.499s-.63.187-.566.872c0 .187 4.842 14.089 7.61 23.502l.314 1.122L34.4 46.629h6.352V28.925z"/><path d="M5.66 36.156s-.189.873.503 1.434c.126.062 9.056 7.168 11.006 8.727h7.484l-10-11.346z" opacity=".4"/><path d="M41.067 6.608H.314V47.19h40.942V6.608zM1.384 46.13V7.668h38.803V46.13H17.169z"/></g></svg>